<?xml version="1.0" encoding="utf-8"?>
<!-- Generator: Adobe Illustrator 23.0.1, SVG Export Plug-In . SVG Version: 6.00 Build 0)  -->
<svg version="1.1" id="Layer_1" xmlns="http://www.w3.org/2000/svg" xmlns:xlink="http://www.w3.org/1999/xlink" x="0px" y="0px"
	 viewBox="0 0 265.9 267.5" style="enable-background:new 0 0 265.9 267.5;" xml:space="preserve">
<style type="text/css">
	.st0{fill:#D9D9D6;}
	.st1{fill:#A4CE4E;}
	.st2{fill:#0090DA;}
	.st3{fill:#F2F2F2;}
</style>
<path class="st0" d="M131.4,4.1C61,4.1,3.9,61.3,3.9,131.7s57,127.6,127.5,127.6S259,202.2,259,131.7S201.8,4.1,131.4,4.1z
	 M131.4,216.8c-47,0-85-38.1-85-85.1c0-46.9,38.1-85.1,85-85.1s85.1,38.1,85.1,85.1S178.4,216.8,131.4,216.8z"/>
<path class="st1" d="M228.2,175.8c0,0-6.4-8.2-15.3-19.5c2.3-7.8,3.6-16,3.6-24.5c0-46.9-38.1-85-85-85V4.2
	C201.9,4.2,259,61.3,259,131.8c0,14.4-2.4,28.3-6.8,41.3C237,174.8,228.2,175.8,228.2,175.8z"/>
<path class="st2" d="M126.4,237.4l13-21.1c30.3-2.5,58.3-21.3,71-52.7c0.5-1.3,1.1-2.6,1.5-3.9c3.9,4.9,15,19.1,15,19.1
	s12.8-1.4,24.4-2.7c-0.5,1.2-0.9,2.4-1.4,3.7c-19.6,48.5-66.4,77.8-112.5,79.6L126.4,237.4z"/>
<polygon class="st3" points="211.8,159.6 212.9,156.3 228.2,175.8 252.2,173.1 251.2,176 226.8,178.8 "/>
<polygon class="st3" points="135.6,216.9 139.3,216.4 127,237.8 138.5,259.4 135.2,259.4 123.6,237.7 "/>
</svg>
