<?xml version="1.0" encoding="utf-8"?>
<!-- Generator: Adobe Illustrator 23.0.1, SVG Export Plug-In . SVG Version: 6.00 Build 0)  -->
<svg version="1.1" id="Layer_1" xmlns="http://www.w3.org/2000/svg" xmlns:xlink="http://www.w3.org/1999/xlink" x="0px" y="0px"
	 viewBox="0 0 265.9 267.5" style="enable-background:new 0 0 265.9 267.5;" xml:space="preserve">
<style type="text/css">
	.st0{fill:#D9D9D6;}
	.st1{fill:#A4CE4E;}
	.st2{fill:#0090DA;}
	.st3{fill:#F2F2F2;}
</style>
<path class="st0" d="M131.4,4.1C61,4.1,3.9,61.3,3.9,131.7s57,127.6,127.5,127.6S259,202.2,259,131.7S201.8,4.1,131.4,4.1z
	 M131.4,216.8c-47,0-85-38.1-85-85.1c0-46.9,38.1-85.1,85-85.1s85.1,38.1,85.1,85.1C216.5,178.7,178.4,216.8,131.4,216.8z"/>
<path class="st1" d="M127,237.8c0,0,9.2-15.9,12.4-21.4c43.3-4,77.1-40.4,77.1-84.6c0-46.9-38.1-85-85-85V4.2
	c70.4,0,127.5,57.1,127.5,127.6c0,68.1-53.3,123.7-120.4,127.4C135.8,254.3,127,237.8,127,237.8z"/>
<path class="st2" d="M31.5,166.6l24.4,4.1c13.7,27.1,41.6,46,75.5,46c1.4,0,2.8,0,4.2-0.1c-3.1,5.5-12.1,21.1-12.1,21.1
	s5.9,11.4,11.7,21.6c-1.3,0-2.6,0.1-3.9,0.1c-52.3,0-97-32.3-116-74.4L31.5,166.6z"/>
<polygon class="st3" points="54.2,167.4 55.9,170.7 31.5,166.6 15.3,185.1 14.2,181.9 30.4,163.4 "/>
<polygon class="st3" points="135.6,216.9 139.3,216.4 127,237.8 138.5,259.4 135.2,259.4 123.6,237.7 "/>
</svg>
