<?xml version="1.0" encoding="utf-8"?>
<!-- Generator: Adobe Illustrator 23.0.1, SVG Export Plug-In . SVG Version: 6.00 Build 0)  -->
<svg version="1.1" id="Layer_1" xmlns="http://www.w3.org/2000/svg" xmlns:xlink="http://www.w3.org/1999/xlink" x="0px" y="0px"
	 viewBox="0 0 265 270.3" style="enable-background:new 0 0 265 270.3;" xml:space="preserve">
<style type="text/css">
	.st0{fill:#D9D9D6;}
	.st1{fill:#A4CE4E;}
	.st2{fill:#0090DA;}
	.st3{fill:#F2F2F2;}
</style>
<g>
	<path class="st0" d="M130.3,4.5C59.9,4.5,2.8,61.7,2.8,132.1s57,127.6,127.5,127.6s127.6-57.1,127.6-127.6S200.7,4.5,130.3,4.5z
		 M130.3,217.1c-47,0-85-38.1-85-85.1s38.1-85.1,85-85.1S215.4,85,215.4,132S177.3,217.1,130.3,217.1z"/>
	<path class="st1" d="M130.4,4.5c70.4,0,127.5,57.1,127.5,127.6s-57.1,127.6-127.6,127.6c-52.4,0-97.5-31.7-117.1-76.9
		c8.8-8.7,17.2-17,17.2-17s13.8,3.4,24.8,6.1c14.3,26.9,42.6,45.2,75.1,45.2c46.9,0,85-38.1,85-85s-38-85-85-85V4.5L130.4,4.5
		L130.4,4.5z"/>
	<path class="st2" d="M12,179.9c-6-14.8-9.3-30.9-9.3-47.8c0-9.1,0.4-14.9,2.2-23.5l23.6-5.4L46,120.9c-0.6,4.5-0.7,6.3-0.7,11.2
		c0,13,2.9,25.2,8.1,36.2c-6.4-1.6-24-5.7-24-5.7S18.9,173,12,179.9z"/>
	<polygon class="st3" points="53.4,168.3 55.2,171.9 30.4,165.8 13.2,182.8 12,179.9 29.4,162.6 	"/>
	<polygon class="st3" points="46.6,117.1 46,120.9 28.5,103.2 4.9,108.6 5.6,105.5 29.3,99.9 	"/>
</g>
<polygon class="st3" points="46.6,117.2 46,120.9 28.5,103.2 4.9,108.6 5.5,105.5 29.4,99.9 "/>
<polygon class="st3" points="53.4,168.3 55.2,171.9 30.4,165.8 13.1,182.8 12,179.9 29.4,162.6 "/>
</svg>
