<?xml version="1.0" encoding="utf-8"?>
<!-- Generator: Adobe Illustrator 23.0.1, SVG Export Plug-In . SVG Version: 6.00 Build 0)  -->
<svg version="1.1" id="Layer_1" xmlns="http://www.w3.org/2000/svg" xmlns:xlink="http://www.w3.org/1999/xlink" x="0px" y="0px"
	 viewBox="0 0 268 268.3" style="enable-background:new 0 0 268 268.3;" xml:space="preserve">
<style type="text/css">
	.st0{fill:#D9D9D6;}
	.st1{fill:#A4CE4E;}
	.st2{fill:#0090DA;}
	.st3{fill:#F2F2F2;}
</style>
<path class="st0" d="M132.6,5C62.2,5,5.1,62.2,5.1,132.6s57,127.6,127.5,127.6s127.6-57.1,127.6-127.6S202.9,5,132.6,5z
	 M132.6,217.7c-47,0-85-38.1-85-85.1c0-46.9,38.1-85.1,85-85.1s85.1,38.1,85.1,85.1C217.6,179.6,179.6,217.7,132.6,217.7z"/>
<path class="st1" d="M132.6,5c70.5,0,127.6,57.1,127.6,127.6s-57.1,127.6-127.6,127.6C62.2,260.2,5,203.1,5,132.6
	c0-7.9,0.7-15.7,2.1-23.2c6.6-2.3,22.9-7.1,22.9-7.1s9.5,8.5,18.6,16.6c-0.7,4.5-1.1,9-1.1,13.7c0,47,38.1,85,85,85
	c47,0,85-38.1,85-85s-38.1-85-85-85c-0.2,0-0.3,0-0.5,0V5C132.3,5,132.5,5,132.6,5z"/>
<path class="st2" d="M7.9,105.6C18.7,55.3,59.1,16.2,110,7c4.6,5.1,16.8,17.8,16.8,17.8s-3.2,11.3-6.3,23.6
	c-35.6,5.1-64.1,32.2-71.3,67.1c-6.8-6.1-18.5-16.6-18.5-16.6S21,101.7,7.9,105.6z"/>
<polygon class="st3" points="123.7,48 120.5,48.4 126.8,24.8 110,7 113.6,6.4 130.1,23.9 "/>
<polygon class="st3" points="49.3,115.5 48.6,118.9 30,102.3 7.2,109 7.9,105.6 30.7,98.9 "/>
</svg>
