<svg fill="none" height="200" viewBox="0 0 200 200" width="200" xmlns="http://www.w3.org/2000/svg"><path d="m98.9552 3.72717c-52.5373 0-95.14923 42.63883-95.14923 95.11743 0 52.4784 42.53733 95.1174 95.14923 95.1174 52.6118 0 95.2238-42.564 95.2238-95.1174 0-52.5531-42.761-95.11743-95.2238-95.11743zm0 158.55383c-35.0746 0-63.4328-28.401-63.4328-63.4364 0-34.9609 28.4328-63.4365 63.4328-63.4365 34.9998 0 63.5078 28.4011 63.5078 63.4365-.075 35.0354-28.433 63.4364-63.5078 63.4364z" fill="#d9d9d6"/><path d="m98.9552 3.72717c52.6118 0 95.2238 42.56433 95.2238 95.11743 0 52.5534-42.612 95.1174-95.2238 95.1174-52.5373 0-95.22388-42.564-95.22388-95.1174 0-5.8889.52239-11.7033 1.56717-17.2941 4.92541-1.7145 17.08951-5.2926 17.08951-5.2926s7.0896 6.3362 13.8806 12.3742c-.5224 3.3545-.8209 6.709-.8209 10.2125 0 35.0354 28.4329 63.3624 63.4329 63.3624 35.0744 0 63.4324-28.402 63.4324-63.3624 0-34.9609-28.432-63.3619-63.4324-63.3619-.1493 0-.2239 0-.3732 0v-31.75553z" fill="#a4ce4e"/><path d="m5.89551 78.7178c8.05969-37.4953 38.20899-66.6418 76.19399-73.49978 3.4329 3.80171 12.5374 13.26868 12.5374 13.26868s-2.3881 8.4235-4.7015 17.5923c-26.5672 3.8017-47.8359 24.003-53.209 50.0186-5.0746-4.5471-13.806-12.3742-13.806-12.3742s-7.2388 2.0872-17.01489 4.9944z" fill="#0090da"/><g fill="#f2f2f2"><path d="m92.3134 35.7808-2.388.2982 4.7015-17.5923-12.5374-13.26869 2.6866-.44726 12.3134 13.04515z"/><path d="m36.791 86.0977-.5224 2.5344-13.8806-12.3742-17.01489 4.9944.52239-2.5344 17.0149-4.9945z"/></g></svg>